<?xml version="1.0" standalone="no"?>
<!DOCTYPE svg PUBLIC "-//W3C//DTD SVG 20010904//EN"
 "http://www.w3.org/TR/2001/REC-SVG-20010904/DTD/svg10.dtd">
<svg version="1.0" xmlns="http://www.w3.org/2000/svg"
 width="1024.000000pt" height="1024.000000pt" viewBox="0 0 1024.000000 1024.000000"
 preserveAspectRatio="xMidYMid meet">
<metadata>
Created by potrace 1.14, written by Peter Selinger 2001-2017
</metadata>
<g transform="translate(0.000000,1024.000000) scale(0.100000,-0.100000)"
fill="#000000" stroke="none">
<path d="M4308 10196 c-1 -2 -32 -6 -68 -10 -193 -19 -416 -87 -614 -189 -226
-115 -399 -249 -566 -437 -36 -41 -74 -84 -85 -96 -11 -12 -42 -48 -70 -79
-27 -32 -57 -65 -65 -75 -8 -9 -66 -76 -129 -148 -90 -103 -118 -129 -135
-126 -39 7 -53 -4 -51 -42 1 -31 -16 -67 -45 -94 -3 -3 -27 -30 -55 -60 -543
-601 -887 -934 -1280 -1240 -88 -68 -162 -127 -165 -131 -3 -3 -34 -30 -68
-59 -108 -89 -260 -239 -373 -367 -296 -338 -466 -671 -505 -988 -45 -361 96
-732 401 -1053 205 -217 529 -383 833 -427 17 -3 48 -7 67 -10 19 -3 52 -8 72
-11 83 -13 408 -7 538 11 17 2 64 9 105 14 125 17 298 26 435 22 l40 -1 -1
-498 c-1 -273 -2 -503 -3 -509 0 -7 -10 -13 -20 -13 -29 0 -159 -48 -211 -78
-136 -77 -247 -197 -337 -362 -65 -120 -132 -351 -150 -520 -10 -95 -10 -383
0 -475 24 -226 85 -477 170 -706 174 -464 480 -886 816 -1123 143 -101 343
-191 476 -214 86 -15 277 -7 350 15 199 58 355 187 473 390 64 110 137 324
157 463 4 25 9 56 11 70 11 62 15 488 15 1538 1 1030 2 1132 16 1120 15 -12
92 -92 144 -149 24 -26 221 -237 269 -288 127 -134 142 -153 136 -168 -4 -9
-9 -32 -12 -52 -3 -20 -8 -39 -10 -42 -18 -30 -25 -354 -11 -484 21 -187 101
-469 187 -666 219 -497 583 -937 995 -1202 136 -87 362 -188 479 -213 166 -37
351 -40 466 -10 95 25 237 98 302 157 193 171 297 437 300 768 l1 88 489 1
c269 0 491 1 493 3 3 4 -84 94 -504 525 -91 93 -295 303 -452 465 -158 162
-335 344 -394 404 -59 61 -223 229 -364 373 -141 145 -296 305 -346 356 -49
51 -223 229 -385 396 -162 167 -323 331 -357 366 -35 35 -63 66 -63 69 0 3 13
18 28 33 28 26 256 242 338 318 88 82 278 261 318 299 23 22 78 74 122 115
253 238 353 331 384 360 19 18 98 92 174 164 77 72 171 161 210 197 122 115
160 151 296 279 230 217 220 209 244 200 12 -5 50 -23 85 -40 236 -116 595
-225 841 -255 210 -26 490 -25 635 1 304 54 515 150 672 301 173 169 252 400
220 644 -31 232 -184 509 -404 733 -79 80 -213 197 -269 236 -217 150 -344
222 -544 310 -91 40 -360 134 -410 143 -14 3 -52 12 -85 20 -64 17 -210 43
-285 52 -126 14 -166 16 -295 16 -142 0 -172 -2 -305 -21 -417 -61 -728 -267
-847 -560 -90 -225 -57 -512 89 -763 15 -26 28 -50 28 -52 0 -9 103 -149 131
-179 16 -17 24 -33 20 -36 -5 -3 -177 -4 -383 -4 l-373 2 -236 -235 -237 -236
-7 69 c-4 38 -8 83 -10 99 -2 17 -7 64 -10 105 -4 41 -8 94 -10 116 -22 240
-22 774 0 914 2 14 6 50 10 80 3 30 14 96 25 145 38 175 79 381 84 425 15 130
18 176 18 290 -1 69 -4 141 -7 160 -3 19 -8 58 -11 85 -3 28 -8 53 -10 56 -2
4 -6 24 -10 44 -10 67 -74 237 -125 334 -63 120 -143 231 -246 341 -248 264
-518 421 -819 476 -76 14 -365 29 -376 20z m-238 -1401 c1 -22 1 -971 1 -2108
l0 -2068 104 3 104 3 1043 1040 1043 1040 710 1 c390 1 714 -1 719 -4 5 -3
-16 -28 -47 -56 -72 -66 -280 -261 -327 -306 -20 -19 -97 -91 -170 -160 -74
-69 -146 -136 -160 -150 -64 -60 -299 -281 -335 -315 -22 -21 -103 -97 -179
-169 -76 -72 -147 -138 -157 -147 -10 -9 -78 -72 -151 -141 -73 -70 -151 -143
-173 -163 -22 -21 -102 -97 -178 -168 -76 -72 -148 -139 -160 -150 -12 -10
-87 -80 -167 -156 -80 -76 -165 -156 -188 -178 l-44 -39 74 -76 c378 -387
1195 -1227 1462 -1501 197 -203 690 -709 766 -787 282 -288 389 -400 383 -401
-5 0 -354 -1 -778 -1 l-769 0 -81 84 c-115 121 -335 355 -358 381 -10 12 -49
54 -85 92 -67 70 -280 299 -342 365 -18 19 -62 67 -99 105 -88 94 -300 321
-341 365 -71 77 -258 277 -308 329 -29 31 -72 76 -95 101 -48 53 -297 319
-379 405 -31 33 -76 81 -99 108 l-43 47 -97 0 -98 0 2 -1190 c2 -1184 2 -1190
-18 -1191 -22 -1 -1304 0 -1320 0 -7 1 -10 1169 -9 3599 1 1978 2 3597 3 3597
0 0 303 0 671 0 l670 0 0 -40z"/>
<path d="M7557 5534 c-1 -1 -40 -4 -87 -8 -129 -10 -169 -17 -266 -47 -290
-88 -485 -280 -555 -547 -25 -90 -29 -278 -10 -382 119 -648 774 -1319 1581
-1620 81 -30 274 -86 329 -95 19 -3 37 -8 41 -10 3 -2 33 -7 65 -10 33 -4 69
-10 80 -12 49 -12 354 -11 433 2 248 41 435 132 563 274 235 260 256 638 59
1059 -66 140 -209 356 -314 472 -129 143 -336 330 -456 413 -199 137 -350 224
-540 310 -105 48 -359 132 -460 152 -98 20 -266 43 -325 44 -38 1 -85 3 -103
5 -18 1 -34 1 -35 0z"/>
</g>
</svg>
